<svg xmlns="http://www.w3.org/2000/svg" width="41.57" height="72" viewBox="0 0 41.57 72"><g fill="#5d8c47"><polygon points="18.71,-10.80 18.71,10.80 0.00,21.60 -18.71,10.80 -18.71,-10.80 -0.00,-21.60"></polygon><polygon points="60.28,-10.80 60.28,10.80 41.57,21.60 22.86,10.80 22.86,-10.80 41.57,-21.60"></polygon><polygon points="18.71,61.20 18.71,82.80 0.00,93.60 -18.71,82.80 -18.71,61.20 -0.00,50.40"></polygon><polygon points="60.28,61.20 60.28,82.80 41.57,93.60 22.86,82.80 22.86,61.20 41.57,50.40"></polygon><polygon points="39.49,25.20 39.49,46.80 20.78,57.60 2.08,46.80 2.08,25.20 20.78,14.40"></polygon><polygon points="18.71,-10.80 18.71,10.80 0.00,21.60 -18.71,10.80 -18.71,-10.80 -0.00,-21.60"></polygon><polygon points="39.49,-46.80 39.49,-25.20 20.78,-14.40 2.08,-25.20 2.08,-46.80 20.78,-57.60"></polygon><polygon points="39.49,97.20 39.49,118.80 20.78,129.60 2.08,118.80 2.08,97.20 20.78,86.40"></polygon></g></svg>